<?xml version="1.0" standalone="no"?>
<!DOCTYPE svg PUBLIC "-//W3C//DTD SVG 20010904//EN"
 "http://www.w3.org/TR/2001/REC-SVG-20010904/DTD/svg10.dtd">
<svg version="1.0" xmlns="http://www.w3.org/2000/svg"
 width="512.000000pt" height="512.000000pt" viewBox="0 0 512.000000 512.000000"
 preserveAspectRatio="xMidYMid meet">
<metadata>
Created by potrace 1.14, written by Peter Selinger 2001-2017
</metadata>
<g transform="translate(0.000000,512.000000) scale(0.100000,-0.100000)"
fill="#000000" stroke="none">
<path d="M398 4866 c-68 -24 -129 -89 -148 -157 -15 -50 -13 -4251 1 -4304 15
-55 100 -139 155 -154 30 -8 634 -10 2175 -9 1976 3 2136 4 2165 20 38 21 91
74 112 113 16 28 17 194 17 2185 0 2020 -1 2157 -17 2186 -22 41 -71 90 -112
112 -29 16 -168 17 -2171 19 -1746 2 -2147 0 -2177 -11z m2515 -477 c37 -17
47 -50 47 -149 0 -99 -10 -132 -47 -149 -17 -8 -211 -11 -644 -11 l-620 0 -24
-25 c-14 -13 -25 -31 -25 -40 0 -12 -15 -15 -80 -15 -65 0 -80 3 -80 15 0 9
-11 27 -25 40 -21 22 -33 25 -95 25 -62 0 -74 -3 -95 -25 -14 -13 -25 -31 -25
-40 0 -12 -15 -15 -80 -15 -65 0 -80 3 -80 15 0 9 -11 27 -25 40 -22 23 -31
25 -124 25 -156 0 -171 14 -171 160 0 97 10 132 44 148 31 15 2116 16 2149 1z
m590 -3 c103 -43 128 -177 48 -257 -112 -113 -296 -12 -267 146 18 94 128 150
219 111z m480 0 c103 -43 128 -177 48 -257 -112 -113 -296 -12 -267 146 18 94
128 150 219 111z m480 0 c103 -43 128 -177 48 -257 -112 -113 -296 -12 -267
146 18 94 128 150 219 111z m257 -2357 l0 -1571 -29 -29 -29 -29 -2102 0
-2102 0 -29 29 -29 29 0 1571 0 1571 2160 0 2160 0 0 -1571z"/>
<path d="M2451 3426 c-47 -17 -108 -71 -131 -117 -11 -21 -31 -98 -43 -171
-15 -86 -28 -134 -37 -139 -8 -5 -51 -23 -96 -42 l-80 -34 -118 84 c-128 89
-175 108 -248 100 -59 -7 -98 -27 -156 -80 -79 -73 -111 -178 -81 -268 7 -19
47 -84 90 -145 44 -62 79 -115 79 -119 0 -5 -17 -50 -37 -100 l-38 -92 -135
-23 c-143 -23 -188 -40 -232 -87 -90 -94 -92 -288 -5 -381 44 -47 87 -64 225
-88 75 -13 139 -24 143 -24 3 0 14 -21 24 -47 10 -27 29 -69 42 -95 l23 -48
-74 -102 c-90 -126 -106 -156 -113 -217 -15 -130 110 -279 249 -297 67 -8 127
17 251 104 l114 81 79 -33 c43 -19 86 -36 95 -39 12 -4 21 -40 38 -144 25
-149 41 -190 93 -240 49 -47 101 -65 188 -66 88 0 139 18 191 69 52 50 67 90
92 243 l22 134 50 17 c28 10 70 27 94 39 l43 23 57 -41 c163 -117 188 -131
241 -143 86 -17 154 6 229 80 49 48 63 69 77 118 27 94 13 141 -88 283 -45 64
-82 123 -81 131 1 18 68 169 80 180 4 4 58 15 118 24 162 26 183 34 240 91 59
58 75 102 75 201 -1 104 -39 177 -118 226 -26 16 -267 68 -315 68 -4 0 -15 17
-23 38 -8 20 -26 63 -41 94 l-26 57 41 58 c118 166 132 190 144 243 9 46 8 64
-6 114 -24 83 -110 168 -193 192 -93 27 -141 12 -282 -88 -64 -45 -123 -82
-131 -81 -25 1 -175 71 -182 85 -4 7 -16 69 -28 137 -12 69 -30 141 -40 162
-25 48 -89 103 -139 117 -49 15 -166 14 -210 -2z m217 -961 c92 -22 159 -60
229 -131 189 -188 188 -480 -3 -672 -74 -74 -156 -116 -261 -134 -311 -53
-598 234 -545 545 48 278 310 456 580 392z"/>
</g>
</svg>
